<svg height="512pt" viewBox="0 0 512 512" width="512pt" xmlns="http://www.w3.org/2000/svg"><path d="m512 256c0 99.933594-57.261719 186.492188-140.769531 228.664062-34.636719 17.484376-73.78125 27.335938-115.230469 27.335938-24.859375 0-48.890625-3.542969-71.617188-10.15625-15.171874-4.410156-29.757812-10.1875-43.613281-17.1875-83.507812-42.164062-140.769531-128.722656-140.769531-228.65625 0-141.386719 114.613281-256 256-256s256 114.613281 256 256zm0 0" fill="#304b82"/><path d="m59.664062 294.160156c-8.257812-22.78125-12.449218-46.726562-12.449218-71.175781 0-115.121094 93.660156-208.78125 208.78125-208.78125s208.78125 93.660156 208.78125 208.78125c0 23.605469-3.914063 46.777344-11.628906 68.863281l-19.730469-6.890625c6.941406-19.867187 10.460937-40.71875 10.460937-61.972656 0-103.597656-84.285156-187.882813-187.882812-187.882813s-187.882813 84.285157-187.882813 187.882813c0 22.011719 3.765625 43.5625 11.199219 64.050781zm0 0" fill="#f2efea"/><path d="m371.230469 484.664062c-34.636719 17.484376-73.78125 27.335938-115.230469 27.335938-24.859375 0-48.890625-3.542969-71.617188-10.15625-15.171874-4.410156-29.757812-10.1875-43.613281-17.1875 5.976563-5.351562 12.507813-10.074219 19.507813-14.097656 9.457031-5.441406 19.75-9.589844 30.636718-12.203125 5.757813-1.390625 11.671876-2.339844 17.742188-2.832031 3.132812-.25 6.300781-.375 9.507812-.375h75.660157c8.957031 0 17.660156.992187 26.019531 2.902343.417969.105469.835938.1875 1.242188.292969 10.886718 2.625 21.179687 6.773438 30.636718 12.214844 6.992188 4.023437 13.53125 8.757812 19.507813 14.105468zm0 0" fill="#eb927a"/><path d="m371.230469 484.664062c-34.636719 17.484376-73.78125 27.335938-115.230469 27.335938-24.859375 0-48.890625-3.542969-71.617188-10.15625 21.179688-28.347656 55.015626-46.695312 93.132813-46.695312h16.308594c29.726562 0 56.855469 11.148437 77.40625 29.515624zm0 0" fill="#f4c0a3"/><path d="m297.453125 410.378906v50.878906c0 18.628907-12.28125 34.371094-29.199219 39.601563-3.871094 1.203125-7.996094 1.851563-12.265625 1.851563-22.894531 0-41.453125-18.554688-41.453125-41.453126v-50.878906zm0 0" fill="#eb927a"/><path d="m297.453125 458.035156v3.222656c0 18.628907-12.28125 34.371094-29.199219 39.601563-15.261718-4.691406-26.738281-17.964844-28.859375-34.203125 2.769531.171875 5.554688.253906 8.355469.253906 7.84375 0 15.53125-.621094 23.023438-1.851562 9.226562-1.480469 18.144531-3.855469 26.679687-7.023438zm0 0" fill="#f4c0a3"/><path d="m399.441406 251.882812v54.625c0 71.382813-52.148437 130.601563-120.429687 141.589844-.230469.039063-.472657.078125-.699219.117188-7.265625 1.160156-14.71875 1.734375-22.324219 1.734375-79.21875 0-143.441406-64.222657-143.441406-143.441407v-54.625c0-16.679687 2.847656-32.710937 8.105469-47.605468 19.617187-55.824219 72.808594-95.847656 135.335937-95.847656h.011719c7.59375 0 15.0625.585937 22.335938 1.734374 68.613281 10.71875 121.105468 70.09375 121.105468 141.71875zm0 0" fill="#eb927a"/><path d="m399.441406 251.882812v54.625c0 71.382813-52.148437 130.601563-120.429687 141.589844-.230469.039063-.472657.078125-.699219.117188-68.613281-10.722656-121.097656-70.09375-121.097656-141.707032v-54.625c0-71.625 52.496094-131 121.121094-141.71875 68.613281 10.71875 121.105468 70.09375 121.105468 141.71875zm0 0" fill="#f4c0a3"/><path d="m353.628906 344.171875c0 9.867187-8 17.867187-17.867187 17.867187-9.867188 0-17.867188-8-17.867188-17.867187 0-9.871094 8-17.867187 17.867188-17.867187 9.867187 0 17.867187 7.996093 17.867187 17.867187zm0 0" fill="#eb927a"/><path d="m194.09375 344.171875c0 9.867187-8 17.867187-17.867188 17.867187-9.867187 0-17.867187-8-17.867187-17.867187 0-9.871094 8-17.867187 17.867187-17.867187 9.867188 0 17.867188 7.996093 17.867188 17.867187zm0 0" fill="#eb927a"/><path d="m235.835938 301.949219h-5.628907c-6.320312-9.8125-17.332031-16.308594-29.859375-16.308594-12.535156 0-23.546875 6.496094-29.859375 16.308594h-5.625c0-19.601563 15.882813-35.484375 35.484375-35.484375 19.59375 0 35.488282 15.882812 35.488282 35.484375zm0 0" fill="#2f373b"/><path d="m347.125 301.949219h-5.625c-6.320312-9.8125-17.332031-16.308594-29.859375-16.308594-12.535156 0-23.546875 6.496094-29.859375 16.308594h-5.625c0-19.601563 15.882812-35.484375 35.484375-35.484375 19.589844 0 35.484375 15.882812 35.484375 35.484375zm0 0" fill="#2f373b"/><path d="m272.273438 345.507812h-32.546876c-3.875 0-7.019531-3.144531-7.019531-7.019531 0-3.878906 3.144531-7.023437 7.019531-7.023437h32.546876c3.875 0 7.019531 3.144531 7.019531 7.023437 0 3.875-3.144531 7.019531-7.019531 7.019531zm0 0" fill="#eb927a"/><path d="m256 389.917969c-12.011719 0-24.023438-3.011719-34.972656-9.03125-3.085938-1.695313-4.214844-5.574219-2.515625-8.664063 1.695312-3.089844 5.578125-4.214844 8.664062-2.519531 18.050781 9.921875 39.601563 9.921875 57.648438 0 3.089843-1.699219 6.96875-.570313 8.667969 2.519531 1.699218 3.089844.570312 6.96875-2.515626 8.664063-10.953124 6.019531-22.964843 9.03125-34.976562 9.03125zm0 0" fill="#eb927a"/><path d="m399.441406 265.117188c-48 0-66.007812-66.023438-66.007812-66.023438s-50.210938 47.65625-127.628906 42.550781c-32.136719-2.117187-52.558594 7.1875-65.433594 18.8125-11.195313 10.109375-16.707032 21.953125-19.285156 29.546875-2.105469 6.214844-9.394532 9.304688-15.058594 6-2.414063-1.40625-4.1875-3.742187-4.1875-7.570312 0-11.90625 10.707031-36.550782 10.707031-36.550782l-19.054687-5.132812c-8.359376-57.863281 31.90625-85.507812 31.90625-85.507812l-15.746094-2.132813c17.023437-61.261719 88.496094-58.710937 88.496094-58.710937l-10.210938-19.5625c53.578125-18.429688 84.925781 10.121093 85.90625 11.039062h.011719l.011719.011719 7.660156-24.667969c84.234375 21.273438 84.234375 68.0625 84.234375 68.0625l18.722656-28.921875c64.65625 84.144531 14.957031 158.757813 14.957031 158.757813zm0 0" fill="#a1edda"/><path d="m224.515625 95.292969 7.65625 12.765625s-34.878906 6.800781-41.683594 41.695312l22.121094-2.554687s-48.5 20.84375-48.5 44.238281l44.210937 1.289062c-1.863281.636719-61.144531 18.710938-67.949218 67.730469-11.195313 10.109375-16.707032 21.953125-19.285156 29.546875-2.105469 6.214844-9.394532 9.304688-15.058594 6-2.414063-1.40625-4.1875-3.742187-4.1875-7.570312 0-11.90625 10.707031-36.550782 10.707031-36.550782l-19.054687-5.132812c-8.359376-57.863281 31.90625-85.507812 31.90625-85.507812l-15.746094-2.132813c17.023437-61.261719 88.496094-58.710937 88.496094-58.710937l-10.210938-19.5625c53.578125-18.429688 84.925781 10.121093 85.90625 11.039062-.777344-.394531-21.785156-10.773438-49.328125 3.417969zm0 0" fill="#6ccfcb"/><path d="m102.65625 241.933594v119.332031l-48.664062-7.785156c-14.933594-2.386719-25.921876-15.273438-25.921876-30.394531v-42.972657c0-15.121093 10.988282-28.007812 25.921876-30.394531zm0 0" fill="#c92888"/><path d="m102.65625 241.933594v88.4375l-48.664062-7.785156c-14.933594-2.398438-25.921876-15.273438-25.921876-30.402344v-12.070313c0-15.121093 10.988282-28.007812 25.921876-30.394531zm0 0" fill="#f76cae"/><path d="m120.058594 245.871094v114.511718c0 10.410157-8.4375 18.847657-18.851563 18.847657h-7.398437c-10.414063 0-18.851563-8.4375-18.851563-18.847657v-114.511718c0-10.414063 8.4375-18.863282 18.851563-18.863282h7.398437c10.414063 0 18.851563 8.449219 18.851563 18.863282zm0 0" fill="#151a1c"/><path d="m120.058594 245.871094v77.652344c0 10.410156-8.4375 18.847656-18.851563 18.847656h-7.398437c-10.414063 0-18.851563-8.4375-18.851563-18.847656v-77.652344c0-10.414063 8.4375-18.863282 18.851563-18.863282h7.398437c10.414063 0 18.851563 8.449219 18.851563 18.863282zm0 0" fill="#2f373b"/><path d="m409.332031 241.933594v119.332031l48.664063-7.785156c14.9375-2.386719 25.925781-15.273438 25.925781-30.394531v-42.972657c0-15.121093-10.992187-28.007812-25.925781-30.394531zm0 0" fill="#c92888"/><path d="m409.332031 241.933594v88.4375l48.664063-7.785156c14.9375-2.398438 25.925781-15.273438 25.925781-30.402344v-12.070313c0-15.121093-10.992187-28.007812-25.925781-30.394531zm0 0" fill="#f76cae"/><path d="m391.933594 245.871094v114.511718c0 10.410157 8.4375 18.847657 18.847656 18.847657h7.402344c10.410156 0 18.847656-8.4375 18.847656-18.847657v-114.511718c0-10.414063-8.4375-18.863282-18.847656-18.863282h-7.402344c-10.410156 0-18.847656 8.449219-18.847656 18.863282zm0 0" fill="#151a1c"/><path d="m391.933594 245.871094v77.652344c0 10.410156 8.4375 18.847656 18.847656 18.847656h7.402344c10.410156 0 18.847656-8.4375 18.847656-18.847656v-77.652344c0-10.414063-8.4375-18.863282-18.847656-18.863282h-7.402344c-10.410156 0-18.847656 8.449219-18.847656 18.863282zm0 0" fill="#2f373b"/></svg>