<svg height="512pt" viewBox="-27 0 512 512" width="512pt" xmlns="http://www.w3.org/2000/svg"><path d="m171.816406 512c-7.898437 0-14.984375-5.523438-16.660156-13.558594-7.773438-37.195312 1.84375-99.582031 3.9375-109.511718 1.945312-9.210938 10.984375-15.097657 20.191406-13.160157 9.207032 1.941407 15.097656 10.980469 13.160156 20.1875-2.445312 11.582031-9.890624 66.984375-3.929687 95.511719 1.925781 9.214844-3.980469 18.242188-13.195313 20.167969-1.175781.246093-2.347656.363281-3.503906.363281zm0 0" fill="#efd176"/><path d="m275.152344 512c-1.15625 0-2.328125-.117188-3.507813-.363281-9.210937-1.925781-15.117187-10.953125-13.191406-20.167969 5.960937-28.527344-1.488281-83.929688-3.929687-95.511719-1.9375-9.207031 3.953124-18.246093 13.160156-20.1875 9.203125-1.945312 18.246094 3.949219 20.191406 13.160157 2.09375 9.929687 11.710938 72.316406 3.9375 109.511718-1.679688 8.035156-8.765625 13.558594-16.660156 13.558594zm0 0" fill="#efd176"/><path d="m400.195312 392.144531c-8.679687 0-17.238281-1.558593-25.53125-4.699219-17.113281-6.476562-32.730468-19.292968-46.410156-38.089843-13.46875-18.5-21.007812-37.257813-24.300781-46.792969-3.070313-8.894531 1.648437-18.597656 10.542969-21.667969 8.894531-3.074219 18.597656 1.644531 21.671875 10.542969 8.902343 25.765625 27.984375 55.589844 50.558593 64.132812 12.015626 4.542969 24.550782 2.964844 38.328126-4.824218 8.191406-4.632813 18.585937-1.742188 23.222656 6.449218 4.632812 8.191407 1.746094 18.585938-6.449219 23.21875-13.792969 7.800782-27.863281 11.730469-41.632813 11.730469zm0 0" fill="#efd176"/><path d="m58.214844 378.027344c-18.191406 0-36.621094-6.296875-51.75-18.273438-7.378906-5.839844-8.625-16.558594-2.785156-23.9375 5.84375-7.378906 16.558593-8.625 23.9375-2.785156 13.253906 10.488281 30.421874 13.730469 44.8125 8.460938 18.777343-6.875 32.597656-27.894532 38.910156-59.179688 1.863281-9.222656 10.847656-15.195312 20.074218-13.332031 9.226563 1.863281 15.195313 10.847656 13.332032 20.074219-4.5 22.304687-12.210938 40.953124-22.921875 55.425781-10.25 13.851562-22.925781 23.613281-37.675781 29.015625-8.316407 3.042968-17.097657 4.53125-25.933594 4.53125zm0 0" fill="#efd176"/><path d="m176.636719 68.65625c23.976562 23.976562 28.082031 61.304688 28.492187 80.460938.148438 6.960937-5.542968 12.652343-12.503906 12.503906-19.15625-.410156-56.484375-4.519532-80.457031-28.496094-23.976563-23.976562-28.085938-61.300781-28.496094-80.457031-.148437-6.960938 5.542969-12.652344 12.503906-12.503907 19.15625.410157 56.484375 4.519532 80.460938 28.492188zm0 0" fill="#8ee2cf"/><path d="m158.777344 122.769531c-1.917969 0-3.835938-.730469-5.300782-2.195312l-28.757812-28.753907c-2.929688-2.929687-2.929688-7.679687 0-10.605468 2.929688-2.929688 7.679688-2.929688 10.605469 0l28.757812 28.753906c2.929688 2.925781 2.929688 7.675781 0 10.605469-1.464843 1.460937-3.382812 2.195312-5.304687 2.195312zm0 0" fill="#6fce91"/><path d="m270.332031 68.65625c-23.976562 23.976562-28.085937 61.304688-28.496093 80.460938-.148438 6.960937 5.542968 12.652343 12.503906 12.503906 19.15625-.410156 56.484375-4.519532 80.460937-28.496094 23.976563-23.976562 28.082031-61.300781 28.492188-80.457031.148437-6.960938-5.542969-12.652344-12.503907-12.503907-19.15625.410157-56.480468 4.519532-80.457031 28.492188zm0 0" fill="#8ee2cf"/><path d="m288.1875 122.769531c-1.917969 0-3.839844-.730469-5.304688-2.195312-2.925781-2.929688-2.925781-7.679688 0-10.605469l28.753907-28.753906c2.933593-2.929688 7.679687-2.929688 10.609375 0 2.929687 2.929687 2.929687 7.675781 0 10.605468l-28.753906 28.753907c-1.464844 1.460937-3.382813 2.195312-5.304688 2.195312zm0 0" fill="#6fce91"/><path d="m269.070312 80.8125c0 33.90625-23.488281 63.207031-36.746093 77.039062-4.816407 5.027344-12.863281 5.027344-17.683594 0-13.253906-13.832031-36.742187-43.132812-36.742187-77.039062s23.488281-63.207031 36.742187-77.042969c4.820313-5.027343 12.867187-5.027343 17.683594 0 13.257812 13.835938 36.746093 43.136719 36.746093 77.042969zm0 0" fill="#8ee2cf"/><path d="m223.484375 108.644531c-4.144531 0-7.5-3.355469-7.5-7.5v-40.664062c0-4.144531 3.355469-7.5 7.5-7.5 4.140625 0 7.5 3.355469 7.5 7.5v40.664062c0 4.140625-3.359375 7.5-7.5 7.5zm0 0" fill="#6fce91"/><path d="m360.121094 287.695312c-10.320313 0-19.074219-7.933593-19.914063-18.398437-6.398437-79.613281-52.214843-131.058594-116.722656-131.058594-64.511719 0-110.328125 51.441407-116.726563 131.058594-.882812 11.007813-10.527343 19.210937-21.535156 18.332031-11.011718-.882812-19.21875-10.527344-18.335937-21.535156 3.914062-48.6875 20.476562-90.308594 47.902343-120.363281 28.347657-31.070313 65.933594-47.492188 108.695313-47.492188 42.757813 0 80.34375 16.421875 108.691406 47.492188 27.425781 30.054687 43.988281 71.675781 47.902344 120.363281.882813 11.007812-7.324219 20.652344-18.335937 21.535156-.542969.046875-1.085938.066406-1.621094.066406zm0 0" fill="#8eafe2"/><path d="m189.03125 102.03125c-28.535156 6.5-53.792969 21.289062-74.242188 43.699219-27.425781 30.054687-43.988281 71.675781-47.898437 120.363281-.828125 10.277344 6.273437 19.359375 16.179687 21.242188l18.386719-6.035157c2.964844-3.179687 4.925781-7.335937 5.300781-12.003906 5.40625-67.285156 38.96875-114.441406 88.171876-127.441406-9.035157-10-11.292969-26.074219-5.898438-39.824219zm0 0" fill="#6a96d7"/><path d="m94.558594 318.578125-10.089844-1.339844c-17.347656-2.300781-30.308594-17.097656-30.308594-34.597656v-18.667969c0-17.5 12.960938-32.296875 30.308594-34.597656l10.089844-1.339844c8.140625-1.082031 15.367187 5.25 15.367187 13.457032v63.628906c0 8.207031-7.226562 14.539062-15.367187 13.457031zm0 0" fill="#4e5660"/><path d="m352.40625 318.578125 10.09375-1.339844c17.347656-2.300781 30.308594-17.097656 30.308594-34.597656v-18.667969c0-17.5-12.960938-32.296875-30.308594-34.597656l-10.09375-1.339844c-8.136719-1.082031-15.363281 5.25-15.363281 13.457032v63.628906c0 8.207031 7.226562 14.539062 15.363281 13.457031zm0 0" fill="#4e5660"/><path d="m223.484375 130.140625c70.335937 0 120.613281 55.394531 127.355469 139.28125 7.011718 87.261719-25.8125 152.351563-127.355469 152.351563s-134.367187-65.089844-127.355469-152.351563c6.738282-83.886719 57.019532-139.28125 127.355469-139.28125zm0 0" fill="#f7ef87"/><g fill="#efd176"><path d="m181.4375 137.453125c-47.757812 17.628906-80.007812 65.980469-85.308594 131.96875-6.992187 87.019531 25.636719 151.980469 126.515625 152.34375-122.441406-74.914063-89.609375-210.078125-41.207031-284.3125zm0 0"/><path d="m211.117188 244.480469c-1.917969 0-3.839844-.730469-5.304688-2.195313-2.929688-2.929687-2.929688-7.679687.003906-10.605468l12.363282-12.367188c2.929687-2.929688 7.679687-2.925781 10.609374 0l12.363282 12.367188c2.929687 2.929687 2.929687 7.675781 0 10.605468-2.929688 2.929688-7.679688 2.929688-10.605469 0l-7.0625-7.0625-7.0625 7.0625c-1.464844 1.460938-3.386719 2.195313-5.304687 2.195313zm0 0"/><path d="m306.546875 244.480469c-1.917969 0-3.839844-.730469-5.300781-2.195313l-7.066406-7.0625-7.058594 7.0625c-2.929688 2.929688-7.679688 2.929688-10.609375 0-2.929688-2.929687-2.929688-7.679687 0-10.605468l12.367187-12.367188c2.929688-2.925781 7.675782-2.925781 10.605469 0l12.363281 12.367188c2.933594 2.925781 2.933594 7.675781.003906 10.605468-1.464843 1.460938-3.386718 2.195313-5.304687 2.195313zm0 0"/><path d="m140.421875 244.480469c-1.921875 0-3.839844-.730469-5.304687-2.195313-2.929688-2.929687-2.929688-7.679687 0-10.605468l12.367187-12.367188c2.929687-2.929688 7.675781-2.925781 10.605469 0l12.363281 12.367188c2.929687 2.929687 2.929687 7.675781 0 10.605468-2.929687 2.929688-7.675781 2.929688-10.605469 0l-7.0625-7.0625-7.0625 7.0625c-1.464844 1.460938-3.382812 2.195313-5.300781 2.195313zm0 0"/><path d="m271.199219 382.410156c-1.921875 0-3.839844-.730468-5.304688-2.195312l-7.0625-7.0625-7.0625 7.0625c-2.929687 2.925781-7.679687 2.925781-10.605469 0-2.929687-2.929688-2.929687-7.679688 0-10.609375l12.363282-12.363281c1.40625-1.40625 3.316406-2.195313 5.304687-2.195313s3.898438.789063 5.304688 2.195313l12.363281 12.367187c2.929688 2.925781 2.929688 7.675781 0 10.605469-1.464844 1.464844-3.382812 2.195312-5.300781 2.195312zm0 0"/><path d="m200.5 382.410156c-1.917969 0-3.839844-.730468-5.304688-2.195312l-7.058593-7.0625-7.0625 7.0625c-2.933594 2.925781-7.679688 2.925781-10.609375 0-2.929688-2.929688-2.929688-7.679688 0-10.609375l12.367187-12.363281c1.40625-1.40625 3.3125-2.195313 5.304688-2.195313 1.988281 0 3.894531.789063 5.304687 2.195313l12.363282 12.367187c2.929687 2.925781 2.929687 7.675781 0 10.605469-1.464844 1.464844-3.386719 2.195312-5.304688 2.195312zm0 0"/></g><path d="m171.765625 317.367188c0-13.300782-13.539063-24.082032-30.238281-24.082032-16.703125 0-30.242188 10.78125-30.242188 24.082032 0 13.300781 13.539063 24.082031 30.242188 24.082031 16.699218 0 30.238281-10.78125 30.238281-24.082031zm0 0" fill="#eda1ab"/><path d="m335.683594 317.367188c0-13.300782-13.539063-24.082032-30.242188-24.082032s-30.242187 10.78125-30.242187 24.082032c0 13.300781 13.539062 24.082031 30.242187 24.082031s30.242188-10.78125 30.242188-24.082031zm0 0" fill="#eda1ab"/><path d="m223.484375 311.773438c-8.667969 0-16.910156-3.753907-22.617187-10.300782-2.722657-3.121094-2.394532-7.859375.726562-10.582031 3.125-2.71875 7.859375-2.394531 10.582031.726563 2.855469 3.277343 6.976563 5.15625 11.308594 5.15625s8.453125-1.878907 11.308594-5.15625c2.722656-3.121094 7.457031-3.445313 10.582031-.726563 3.121094 2.722656 3.445312 7.460937.726562 10.582031-5.707031 6.546875-13.949218 10.300782-22.617187 10.300782zm0 0" fill="#4e5660"/><path d="m159.148438 299.855469c-7.003907 0-13.660157-3.035157-18.269532-8.320313-2.722656-3.125-2.394531-7.859375.726563-10.582031 3.121093-2.722656 7.859375-2.394531 10.582031.726563 1.757812 2.019531 4.296875 3.175781 6.960938 3.175781 2.667968 0 5.203124-1.15625 6.964843-3.175781 2.722657-3.121094 7.457031-3.449219 10.582031-.726563 3.121094 2.722656 3.445313 7.460937.726563 10.582031-4.609375 5.285156-11.269531 8.320313-18.273437 8.320313zm0 0" fill="#4e5660"/><path d="m287.816406 299.855469c-7.003906 0-13.664062-3.035157-18.269531-8.320313-2.722656-3.125-2.398437-7.859375.726563-10.582031 3.121093-2.722656 7.859374-2.394531 10.582031.726563 1.757812 2.019531 4.296875 3.175781 6.960937 3.175781 2.667969 0 5.203125-1.15625 6.964844-3.175781 2.71875-3.121094 7.457031-3.449219 10.582031-.726563 3.121094 2.722656 3.445313 7.460937.726563 10.582031-4.613282 5.285156-11.269532 8.320313-18.273438 8.320313zm0 0" fill="#4e5660"/><path d="m167.796875 167.816406h-27.566406c-11.582031 0-20.214844 10.679688-17.785157 22.003906l1.527344 7.121094c2.566406 11.964844 13.140625 20.515625 25.378906 20.515625h9.324219c12.238281 0 22.8125-8.550781 25.378907-20.515625l1.527343-7.121094c2.429688-11.324218-6.203125-22.003906-17.785156-22.003906zm0 0" fill="#4e5660"/><path d="m265.652344 181.449219c-.339844 0-.683594-.023438-1.023438-.070313-9.957031-1.355468-23.632812-2.914062-41.144531-2.914062-17.515625 0-31.1875 1.558594-41.144531 2.914062-4.097656.5625-7.882813-2.3125-8.445313-6.417968-.558593-4.105469 2.3125-7.882813 6.417969-8.445313 10.425781-1.421875 24.753906-3.050781 43.171875-3.050781 18.414063 0 32.742187 1.628906 43.171875 3.050781 4.101562.5625 6.976562 4.34375 6.417969 8.445313-.515625 3.761718-3.730469 6.488281-7.421875 6.488281zm0 0" fill="#e26e7e"/><path d="m158.675781 224.957031h-9.324219c-15.667968 0-29.429687-11.121093-32.710937-26.445312l-1.527344-7.117188c-1.636719-7.625.238281-15.472656 5.140625-21.535156 4.898438-6.0625 12.179688-9.539063 19.976563-9.539063h27.566406c7.796875 0 15.078125 3.476563 19.980469 9.539063 4.898437 6.0625 6.773437 13.910156 5.140625 21.535156l-1.527344 7.121094c-3.289063 15.320313-17.046875 26.441406-32.714844 26.441406zm-18.445312-49.640625c-3.246094 0-6.273438 1.449219-8.3125 3.972656-2.042969 2.519532-2.820313 5.789063-2.140625 8.960938l1.527344 7.117188c1.8125 8.453124 9.402343 14.589843 18.046874 14.589843h9.320313c8.648437 0 16.234375-6.136719 18.046875-14.589843l1.527344-7.121094c.679687-3.167969-.097656-6.4375-2.136719-8.957032-2.039063-2.523437-5.070313-3.972656-8.316406-3.972656zm0 0" fill="#e26e7e"/><path d="m279.171875 167.816406h27.566406c11.582031 0 20.210938 10.679688 17.785157 22.003906l-1.527344 7.121094c-2.566406 11.964844-13.144532 20.515625-25.382813 20.515625h-9.320312c-12.238281 0-22.816407-8.550781-25.378907-20.515625l-1.527343-7.121094c-2.429688-11.324218 6.203125-22.003906 17.785156-22.003906zm0 0" fill="#4e5660"/><path d="m297.613281 224.957031h-9.320312c-15.671875 0-29.429688-11.121093-32.714844-26.445312l-1.527344-7.117188c-1.632812-7.621093.238281-15.472656 5.140625-21.535156 4.898438-6.0625 12.183594-9.539063 19.980469-9.539063h27.566406c7.796875 0 15.078125 3.476563 19.976563 9.539063 4.902344 6.0625 6.773437 13.914063 5.140625 21.535156l-1.527344 7.117188c-3.285156 15.324219-17.042969 26.445312-32.714844 26.445312zm-18.441406-49.640625c-3.246094 0-6.277344 1.449219-8.3125 3.972656-2.039063 2.523438-2.820313 5.789063-2.140625 8.960938l1.527344 7.117188c1.8125 8.453124 9.402344 14.589843 18.046875 14.589843h9.320312c8.644531 0 16.234375-6.136719 18.050781-14.589843l1.523438-7.117188c.679688-3.171875-.097656-6.4375-2.136719-8.960938-2.039062-2.523437-5.070312-3.972656-8.316406-3.972656zm0 0" fill="#e26e7e"/><path d="m438.367188 336.410156c-4.144532 0-7.5-3.355468-7.5-7.5v-12.679687c0-4.140625 3.355468-7.5 7.5-7.5 4.140624 0 7.5 3.359375 7.5 7.5v12.679687c0 4.144532-3.359376 7.5-7.5 7.5zm0 0" fill="#4e5660"/><path d="m411.855469 344.300781c-1.921875 0-3.839844-.730469-5.304688-2.195312l-8.964843-8.964844c-2.929688-2.929687-2.929688-7.679687 0-10.609375 2.929687-2.925781 7.675781-2.925781 10.605468 0l8.964844 8.96875c2.929688 2.929688 2.929688 7.675781 0 10.605469-1.460938 1.464843-3.382812 2.195312-5.300781 2.195312zm0 0" fill="#4e5660"/><path d="m55.402344 93.710938-19.308594 3.402343c-5.152344.910157-8.90625 5.382813-8.90625 10.617188v28.445312c-1.707031-.109375-3.519531-.011719-5.398438.320313-10.171874 1.792968-18.417968 9.714844-18.417968 17.691406s8.246094 12.992188 18.417968 11.195312c10.171876-1.792968 18.417969-9.710937 18.417969-17.691406v-35.394531l10.554688-1.863281c5.101562-.898438 8.820312-5.332032 8.820312-10.515625v-2.703125c0-2.214844-2-3.890625-4.179687-3.503906zm0 0" fill="#a3defe"/><path d="m453.234375 141.175781-19.308594 3.402344c-5.152343.910156-8.910156 5.386719-8.910156 10.617187v28.449219c-1.707031-.109375-3.519531-.011719-5.398437.320313-10.171876 1.792968-18.417969 9.710937-18.417969 17.6875 0 7.980468 8.246093 12.992187 18.417969 11.199218 10.171874-1.796874 18.417968-9.714843 18.417968-17.691406v-35.398437l10.554688-1.863281c5.105468-.898438 8.824218-5.332032 8.824218-10.515626v-2.703124c0-2.210938-2-3.890626-4.179687-3.503907zm0 0" fill="#e26e7e"/></svg>